<?xml version="1.0"?>
<svg width="20" height="60" xmlns="http://www.w3.org/2000/svg" xmlns:svg="http://www.w3.org/2000/svg">
 <g>
  <title>Layer 1</title>
  <g stroke="null" id="layer1">
   <path stroke="null" d="m1.5,-0.000183c-0.831,0 -1.5,0.669 -1.5,1.5c0,0.416 0.167,0.792 0.438,1.063l7.438,7.438l-7.438,7.438c-0.271,0.271 -0.438,0.646 -0.438,1.063c0,0.831 0.669,1.5 1.5,1.5c0.416,0 0.792,-0.166 1.063,-0.438l7.438,-7.438l7.438,7.438c0.271,0.271 0.646,0.438 1.063,0.438c0.831,0 1.5,-0.669 1.5,-1.5c0,-0.416 -0.166,-0.791 -0.438,-1.063l-7.438,-7.438l7.438,-7.438c0.271,-0.271 0.438,-0.647 0.438,-1.063c0,-0.831 -0.669,-1.5 -1.5,-1.5c-0.416,0 -0.791,0.167 -1.063,0.438l-7.439,7.437l-7.438,-7.438c-0.27,-0.27 -0.646,-0.437 -1.062,-0.437z" fill="#cccccc" id="rect2991-0"/>
  </g>
  <g id="layer1_1_">
   <path d="m1.5,19.999817c-0.831,0 -1.5,0.669 -1.5,1.5c0,0.416 0.167,0.791 0.438,1.063l7.438,7.438l-7.438,7.438c-0.271,0.271 -0.438,0.646 -0.438,1.063c0,0.831 0.669,1.5 1.5,1.5c0.416,0 0.792,-0.166 1.063,-0.438l7.438,-7.438l7.438,7.438c0.271,0.271 0.646,0.438 1.063,0.438c0.831,0 1.5,-0.669 1.5,-1.5c0,-0.416 -0.166,-0.791 -0.438,-1.063l-7.438,-7.438l7.438,-7.438c0.271,-0.271 0.438,-0.646 0.438,-1.063c0,-0.831 -0.669,-1.5 -1.5,-1.5c-0.416,0 -0.791,0.166 -1.063,0.438l-7.439,7.437l-7.438,-7.438c-0.27,-0.271 -0.646,-0.437 -1.062,-0.437z" fill="#adadad" id="rect2991-0_1_"/>
  </g>
  <g id="layer1_2_">
   <path d="m1.5,39.999817c-0.831,0 -1.5,0.669 -1.5,1.5c0,0.416 0.167,0.791 0.438,1.063l7.438,7.438l-7.438,7.438c-0.271,0.271 -0.438,0.646 -0.438,1.063c0,0.831 0.669,1.5 1.5,1.5c0.416,0 0.792,-0.166 1.063,-0.438l7.438,-7.438l7.438,7.438c0.271,0.271 0.646,0.438 1.063,0.438c0.831,0 1.5,-0.669 1.5,-1.5c0,-0.416 -0.166,-0.791 -0.438,-1.063l-7.438,-7.438l7.438,-7.438c0.271,-0.271 0.438,-0.646 0.438,-1.063c0,-0.831 -0.669,-1.5 -1.5,-1.5c-0.416,0 -0.791,0.166 -1.063,0.438l-7.439,7.437l-7.438,-7.438c-0.27,-0.271 -0.646,-0.437 -1.062,-0.437z" fill="#6d6d6d" id="rect2991-0_2_"/>
  </g>
 </g>
</svg>