<?xml version="1.0" encoding="utf-8"?>
<!-- Generator: Adobe Illustrator 15.0.0, SVG Export Plug-In  -->
<!DOCTYPE svg PUBLIC "-//W3C//DTD SVG 1.1//EN" "http://www.w3.org/Graphics/SVG/1.1/DTD/svg11.dtd" [
	<!ENTITY ns_flows "http://ns.adobe.com/Flows/1.0/">
]>
<svg version="1.1"
	 xmlns="http://www.w3.org/2000/svg" xmlns:xlink="http://www.w3.org/1999/xlink" xmlns:a="http://ns.adobe.com/AdobeSVGViewerExtensions/3.0/"
	 x="0px" y="0px" width="18px" height="15px" viewBox="0 0 18 15" enable-background="new 0 0 18 15" xml:space="preserve">
<defs>
</defs>
<path fill="#FFFFFF" d="M9,15l-0.298-0.221c-0.857-0.63-8.376-6.26-8.675-9.542C-0.142,3.394,0.521,2.2,1.107,1.523
	C1.894,0.614,3.065,0.046,4.24,0.005L4.514,0C6.316,0,7.721,0.665,9,2.14C10.279,0.665,11.684,0,13.486,0l0.273,0.005
	c1.176,0.041,2.347,0.609,3.134,1.518c0.585,0.677,1.248,1.871,1.08,3.714c-0.299,3.282-7.818,8.912-8.675,9.542L9,15z M4.514,1.037
	L4.276,1.041c-0.901,0.032-1.8,0.468-2.404,1.167C1.223,2.959,0.935,3.974,1.042,5.141C1.25,7.427,6.597,11.906,9,13.718
	c2.403-1.813,7.75-6.291,7.958-8.577c0.106-1.167-0.182-2.182-0.831-2.933c-0.604-0.699-1.503-1.135-2.403-1.167l-0.238-0.004
	c-1.67,0-2.891,0.668-4.083,2.234L9,3.799L8.598,3.271C7.405,1.705,6.185,1.037,4.514,1.037z"/>
</svg>
