<?xml version="1.0" encoding="utf-8"?>
<!DOCTYPE svg PUBLIC "-//W3C//DTD SVG 1.1//EN" "http://www.w3.org/Graphics/SVG/1.1/DTD/svg11.dtd">
<svg
	version="1.1"
	xmlns="http://www.w3.org/2000/svg"
	x="0px"
	y="0px"
	width="17px"
	height="17px"
	viewBox="0 0 17 17"
	enable-background="new 0 0 17 17"
	>
<path fill="#CECDCD" d="M17,15.585l-4.399-4.398C13.476,10.018,14,8.572,14,7c0-3.866-3.134-7-7-7S0,3.134,0,7s3.134,7,7,7
	c1.572,0,3.018-0.524,4.187-1.399L15.585,17L17,15.585z M1,7c0-3.313,2.687-6,6-6s6,2.687,6,6c0,3.315-2.687,6-6,6S1,10.314,1,7z"/>
</svg>
