<?xml version="1.0" encoding="utf-8"?>
<!-- Generator: Adobe Illustrator 15.0.0, SVG Export Plug-In . SVG Version: 6.00 Build 0)  -->
<!DOCTYPE svg PUBLIC "-//W3C//DTD SVG 1.1//EN" "http://www.w3.org/Graphics/SVG/1.1/DTD/svg11.dtd">
<svg version="1.1" id="Слой_1" xmlns="http://www.w3.org/2000/svg" xmlns:xlink="http://www.w3.org/1999/xlink" x="0px" y="0px"
	 width="14px" height="14px" viewBox="0 0 14 14" enable-background="new 0 0 14 14" xml:space="preserve">
<path fill="#45A535" d="M7,0C3.134,0,0,3.134,0,7s3.134,7,7,7s7-3.134,7-7S10.866,0,7,0z M7,12.5c-3.038,0-5.5-2.462-5.5-5.5
	c0-3.037,2.462-5.5,5.5-5.5s5.5,2.463,5.5,5.5C12.5,10.038,10.038,12.5,7,12.5z"/>
<polygon fill="#45A535" points="9.389,9.12 7.5,7.232 7.5,3 6.5,3 6.5,8 6.854,8 8.682,9.827 "/>
</svg>
