<?xml version="1.0" encoding="utf-8"?>
<!DOCTYPE svg PUBLIC "-//W3C//DTD SVG 1.1//EN" "http://www.w3.org/Graphics/SVG/1.1/DTD/svg11.dtd">
<svg version="1.1"
	 xmlns="http://www.w3.org/2000/svg"
	 x="0px"
	 y="0px"
	 width="17px"
	 height="17px"
	 viewBox="0 0 17 17"
	 enable-background="new 0 0 17 17"
	 >
<path fill="#41A204" d="M17,13.426c0,0.219-0.041,0.502-0.121,0.852
	c-0.082,0.35-0.166,0.625-0.254,0.826c-0.169,0.402-0.66,0.83-1.473,1.279C14.396,16.793,13.647,17,12.906,17
	c-0.217,0-0.428-0.016-0.634-0.043c-0.205-0.029-0.437-0.078-0.694-0.15s-0.449-0.131-0.573-0.176
	c-0.125-0.043-0.349-0.127-0.67-0.248c-0.321-0.119-0.519-0.191-0.592-0.217c-0.789-0.281-1.493-0.615-2.113-1
	c-1.03-0.637-2.094-1.506-3.193-2.604c-1.099-1.1-1.966-2.164-2.603-3.193c-0.386-0.62-0.72-1.325-1.002-2.113
	c-0.024-0.072-0.097-0.27-0.217-0.592c-0.121-0.322-0.204-0.545-0.248-0.67C0.324,5.87,0.266,5.678,0.193,5.421
	c-0.072-0.258-0.123-0.49-0.15-0.694C0.014,4.522,0,4.311,0,4.093c0-0.74,0.205-1.489,0.616-2.246
	c0.451-0.813,0.877-1.304,1.279-1.473c0.202-0.089,0.477-0.173,0.827-0.253C3.072,0.041,3.356,0,3.574,0
	c0.112,0,0.197,0.012,0.253,0.036c0.145,0.048,0.358,0.354,0.64,0.917c0.088,0.153,0.209,0.371,0.362,0.652s0.294,0.537,0.423,0.766
	s0.253,0.445,0.374,0.646C5.65,3.051,5.72,3.151,5.837,3.32c0.117,0.169,0.204,0.312,0.26,0.428C6.153,3.866,6.182,3.98,6.182,4.093
	c0,0.161-0.115,0.362-0.345,0.604C5.607,4.938,5.358,5.159,5.088,5.361c-0.27,0.201-0.519,0.415-0.749,0.64
	c-0.229,0.226-0.344,0.41-0.344,0.555c0,0.072,0.02,0.163,0.061,0.271c0.04,0.108,0.074,0.191,0.102,0.247
	c0.028,0.057,0.084,0.153,0.169,0.29s0.131,0.214,0.139,0.229c0.612,1.103,1.312,2.048,2.101,2.837
	c0.789,0.789,1.734,1.488,2.838,2.102c0.016,0.006,0.092,0.055,0.229,0.139c0.137,0.084,0.232,0.141,0.289,0.17
	c0.056,0.027,0.139,0.061,0.247,0.102c0.11,0.039,0.2,0.061,0.272,0.061c0.145,0,0.331-0.115,0.556-0.344
	c0.226-0.23,0.438-0.48,0.64-0.748c0.2-0.271,0.423-0.521,0.664-0.75c0.24-0.23,0.443-0.344,0.604-0.344
	c0.113,0,0.228,0.027,0.344,0.084c0.117,0.057,0.26,0.143,0.429,0.26s0.271,0.188,0.302,0.211c0.202,0.121,0.416,0.246,0.646,0.375
	c0.229,0.129,0.485,0.27,0.768,0.422c0.281,0.152,0.498,0.273,0.65,0.363c0.563,0.281,0.87,0.494,0.918,0.639
	C16.987,13.229,17,13.313,17,13.426z"/>
</svg>
