<?xml version="1.0" encoding="utf-8"?>
<!-- Generator: Adobe Illustrator 15.0.0, SVG Export Plug-In . SVG Version: 6.00 Build 0)  -->
<!DOCTYPE svg PUBLIC "-//W3C//DTD SVG 1.1//EN" "http://www.w3.org/Graphics/SVG/1.1/DTD/svg11.dtd">
<svg version="1.1" id="Слой_1" xmlns="http://www.w3.org/2000/svg" xmlns:xlink="http://www.w3.org/1999/xlink" x="0px" y="0px"
	 width="60px" height="40px" viewBox="0 0 60 40" enable-background="new 0 0 60 40" xml:space="preserve">
<g>
	<path fill="#A3A3A3" d="M20,22c0,1.104-0.896,2-2,2H2c-1.104,0-2-0.896-2-2l0,0c0-1.104,0.896-2,2-2h16C19.104,20,20,20.896,20,22
		L20,22z"/>
	<path fill="#A3A3A3" d="M20,30c0,1.104-0.896,2-2,2H2c-1.104,0-2-0.896-2-2l0,0c0-1.104,0.896-2,2-2h16C19.104,28,20,28.896,20,30
		L20,30z"/>
	<path fill="#A3A3A3" d="M20,38c0,1.104-0.896,2-2,2H2c-1.104,0-2-0.896-2-2l0,0c0-1.104,0.896-2,2-2h16C19.104,36,20,36.896,20,38
		L20,38z"/>
</g>
<polygon fill="#A3A3A3" points="40,20 20,20 28,28.8 28,40 32,36 32,28.8 "/>
<polygon fill="#DBDBDB" points="40,0 20,0 28,8.8 28,20 32,16 32,8.8 "/>
<polygon fill="#A3A3A3" points="28,8.8 21.625,0.813 39.262,0.813 40,0 20,0 "/>
<path fill="#DBDBDB" d="M20,2c0,1.104-0.896,2-2,2H2C0.896,4,0,3.104,0,2l0,0c0-1.104,0.896-2,2-2h16C19.104,0,20,0.896,20,2L20,2z"
	/>
<path fill="#DBDBDB" d="M20,10c0,1.104-0.896,2-2,2H2c-1.104,0-2-0.896-2-2l0,0c0-1.104,0.896-2,2-2h16C19.104,8,20,8.896,20,10
	L20,10z"/>
<path fill="#DBDBDB" d="M20,18c0,1.104-0.896,2-2,2H2c-1.104,0-2-0.896-2-2l0,0c0-1.104,0.896-2,2-2h16C19.104,16,20,16.896,20,18
	L20,18z"/>
<path fill="#A3A3A3" d="M0.328,18.526c0-1.104,0.896-2,2-2h16c0.612,0,1.154,0.282,1.521,0.716C19.55,16.514,18.835,16,18,16H2
	c-1.104,0-2,0.896-2,2c0,0.492,0.185,0.937,0.479,1.285C0.383,19.05,0.328,18.795,0.328,18.526z"/>
<path fill="#A3A3A3" d="M0.328,2.526c0-1.104,0.896-2,2-2h16c0.612,0,1.154,0.282,1.521,0.716C19.55,0.514,18.835,0,18,0H2
	C0.896,0,0,0.896,0,2c0,0.492,0.185,0.937,0.479,1.285C0.383,3.05,0.328,2.795,0.328,2.526z"/>
<path fill="#A3A3A3" d="M0.328,10.526c0-1.104,0.896-2,2-2h16c0.611,0,1.153,0.282,1.521,0.716C19.549,8.514,18.834,8,18,8H2
	c-1.104,0-2,0.896-2,2c0,0.492,0.185,0.937,0.479,1.285C0.383,11.05,0.328,10.795,0.328,10.526z"/>
<g id="Page-1_1_">
	<g id="Core_1_" transform="translate(-212.000000, -422.000000)">
		<g id="shopping-cart_1_" transform="translate(212.000000, 422.000000)">
			<path id="Shape_1_" fill="#A3A3A3" d="M46,36c-1.1,0-2,0.9-2,2s0.9,2,2,2s2-0.9,2-2S47.1,36,46,36L46,36z M40,20v2h2l3.6,7.6
				L44.2,32C44.1,32.3,44,32.7,44,33c0,1.1,0.9,2,2,2h12v-2H46.4c-0.101,0-0.2-0.1-0.2-0.2v-0.1L47.1,31h7.4c0.8,0,1.4-0.4,1.7-1
				l3.6-6.5C60,23.3,60,23.2,60,23c0-0.6-0.4-1-1-1H44.2l-0.9-2H40L40,20z M56,36c-1.1,0-2,0.9-2,2s0.9,2,2,2s2-0.9,2-2
				S57.1,36,56,36L56,36z"/>
		</g>
	</g>
</g>
<g id="Page-1_3_">
	<g id="Core_3_" transform="translate(-212.000000, -422.000000)">
		<g id="shopping-cart_3_" transform="translate(212.000000, 422.000000)">
			<path id="Shape_3_" fill="#DBDBDB" d="M46,16c-1.1,0-2,0.9-2,2s0.9,2,2,2s2-0.9,2-2S47.1,16,46,16L46,16z M40,0v2h2l3.6,7.6
				L44.2,12C44.1,12.3,44,12.7,44,13c0,1.1,0.9,2,2,2h12v-2H46.4c-0.101,0-0.2-0.1-0.2-0.2v-0.1L47.1,11h7.4c0.8,0,1.4-0.4,1.7-1
				l3.6-6.5C60,3.3,60,3.2,60,3c0-0.6-0.4-1-1-1H44.2l-0.9-2H40L40,0z M56,16c-1.1,0-2,0.9-2,2s0.9,2,2,2s2-0.9,2-2S57.1,16,56,16
				L56,16z"/>
		</g>
	</g>
</g>
<g>
	<path fill="#A3A3A3" d="M44.763,2.438h14.8c0.11,0,0.205,0.027,0.301,0.053C59.701,2.191,59.402,2,59,2H44.565L44.763,2.438z"/>
	<path fill="#A3A3A3" d="M44,13c0,0.766,0.441,1.427,1.078,1.763c-0.316-0.354-0.516-0.816-0.516-1.326c0-0.3,0.1-0.7,0.2-1
		l1.399-2.4l-3.6-7.6h-0.355L45.6,9.6L44.2,12C44.1,12.3,44,12.7,44,13z"/>
	<path fill="#A3A3A3" d="M46.763,13.138v0.1c0,0.101,0.1,0.2,0.2,0.2H58V13H46.836L46.763,13.138z"/>
	<polygon fill="#A3A3A3" points="40.563,0.438 43.497,0.438 43.3,0 40,0 40,2 40.563,2 	"/>
	<path fill="#A3A3A3" d="M54.563,18.438c0-1.1,0.9-2,2-2c0.334,0,0.645,0.091,0.922,0.237C57.117,16.264,56.59,16,56,16
		c-1.1,0-2,0.9-2,2c0,0.766,0.441,1.427,1.078,1.763C54.762,19.409,54.563,18.947,54.563,18.438z"/>
	<path fill="#A3A3A3" d="M44.563,18.438c0-1.1,0.9-2,2-2c0.334,0,0.645,0.091,0.922,0.237C47.117,16.264,46.59,16,46,16
		c-1.1,0-2,0.9-2,2c0,0.766,0.441,1.427,1.078,1.763C44.762,19.409,44.563,18.947,44.563,18.438z"/>
</g>
</svg>
