<?xml version="1.0" encoding="utf-8"?>
<!-- Generator: Adobe Illustrator 15.0.0, SVG Export Plug-In  -->
<!DOCTYPE svg PUBLIC "-//W3C//DTD SVG 1.1//EN" "http://www.w3.org/Graphics/SVG/1.1/DTD/svg11.dtd" [
	<!ENTITY ns_flows "http://ns.adobe.com/Flows/1.0/">
]>
<svg version="1.1"
	 xmlns="http://www.w3.org/2000/svg" xmlns:xlink="http://www.w3.org/1999/xlink" xmlns:a="http://ns.adobe.com/AdobeSVGViewerExtensions/3.0/"
	 x="0px" y="0px" width="14px" height="12px" viewBox="0 0 14 12" enable-background="new 0 0 14 12" xml:space="preserve">
<defs>
</defs>
<path fill="#F0846F" d="M9.427,1c1.722,0,3.117,1.396,3.117,3.118c0,0.937-0.415,1.776-1.07,2.347L6.771,11L2.07,6.465
	C1.416,5.894,1,5.055,1,4.118C1,2.396,2.395,1,4.117,1c1.125,0,2.106,0.597,2.654,1.49C7.32,1.597,8.303,1,9.427,1 M9.427,0
	C8.434,0,7.502,0.35,6.771,0.97C6.041,0.35,5.109,0,4.117,0C1.848,0,0,1.847,0,4.118c0,1.186,0.515,2.316,1.412,3.1l4.667,4.502
	l0.693,0.67l0.695-0.67l4.685-4.519c0.885-0.782,1.393-1.904,1.393-3.083C13.544,1.847,11.697,0,9.427,0L9.427,0z"/>
</svg>
